<?xml version="1.0" encoding="UTF-8" standalone="no"?>
<!-- Created with Inkscape (http://www.inkscape.org/) -->

<svg
   xmlns:dc="http://purl.org/dc/elements/1.1/"
   xmlns:cc="http://creativecommons.org/ns#"
   xmlns:rdf="http://www.w3.org/1999/02/22-rdf-syntax-ns#"
   xmlns:svg="http://www.w3.org/2000/svg"
   xmlns="http://www.w3.org/2000/svg"
   xmlns:sodipodi="http://sodipodi.sourceforge.net/DTD/sodipodi-0.dtd"
   xmlns:inkscape="http://www.inkscape.org/namespaces/inkscape"
   id="svg2"
   version="1.1"
   inkscape:version="0.48.4 r9939"
   width="977.7"
   height="731.6875"
   xml:space="preserve"
   sodipodi:docname="Arrows_Set.003.eps"><metadata
     id="metadata8"><rdf:RDF><cc:Work
         rdf:about=""><dc:format>image/svg+xml</dc:format><dc:type
           rdf:resource="http://purl.org/dc/dcmitype/StillImage" /><dc:title></dc:title></cc:Work></rdf:RDF></metadata><defs
     id="defs6" /><sodipodi:namedview
     pagecolor="#ffffff"
     bordercolor="#666666"
     borderopacity="1"
     objecttolerance="10"
     gridtolerance="10"
     guidetolerance="10"
     inkscape:pageopacity="0"
     inkscape:pageshadow="2"
     inkscape:window-width="1920"
     inkscape:window-height="1031"
     id="namedview4"
     showgrid="false"
     inkscape:zoom="0.91228674"
     inkscape:cx="587.74813"
     inkscape:cy="248.30346"
     inkscape:window-x="0"
     inkscape:window-y="25"
     inkscape:window-maximized="1"
     inkscape:current-layer="g10" /><g
     id="g10"
     inkscape:groupmode="layer"
     inkscape:label="ink_ext_XXXXXX"
     transform="matrix(1.25,0,0,-1.25,0,731.6875)"><g
       id="g14"><text
         id="text16"
         transform="matrix(1,0,0,-1,0,3)"><tspan
           id="tspan18"
           sodipodi:role="line"
           y="0"
           x="0 7.3081102 11.280281 15.083992 21.5879 30.348152 35.100105 37.644054 41.328136 43.439957 49.476089 51.959984 58.115742 64.271507 70.427269 72.971222 76.654808 79.198761 85.187042 91.198769 95.134315 97.617714 103.77397 109.93022 116.08648 118.63043 122.31402 124.85798 133.83357 142.81013 151.17438 153.65779 163.37654 169.38826 176.15584 178.96346 184.74765 194.53964 197.34726 200.17929 202.98691 206.95857 209.76624 215.55042 218.0338 223.33751 229.9254"
           style="font-size:12px;font-variant:normal;font-weight:normal;writing-mode:lr-tb;fill:#231f20;fill-opacity:1;fill-rule:nonzero;stroke:none;font-family:MyriadPro;-inkscape-font-specification:MyriadPro-Regular">Arrows - V.001 - Set.003 - www.MediaMilitia.com</tspan></text>
</g><path
       inkscape:connector-curvature="0"
       id="path20"
       style="fill:#231f20;fill-opacity:1;fill-rule:nonzero;stroke:none"
       d="m 773.698,563.684 c 0,1.23 0,2.46 0,3.7 -1.691,1.65 -4.431,0.9 -6.34,0 0,-1.24 0,-2.47 0,-3.7 1.72,-1.77 4.619,-1.77 6.34,0 z m 2.639,6.87 c 4.3,-9.67 -12.75,-13.33 -11.089,-3.17 2.759,1.82 7.75,3.61 11.089,3.17" /><path
       inkscape:connector-curvature="0"
       id="path22"
       style="fill:#231f20;fill-opacity:1;fill-rule:nonzero;stroke:none"
       d="m 769.467,575.304 c 0.55,1.85 8.08,-0.45 5.821,-3.17 -2.46,0.54 -2.13,3.87 -5.821,3.17" /><path
       inkscape:connector-curvature="0"
       id="path24"
       style="fill:#ffffff;fill-opacity:1;fill-rule:nonzero;stroke:none"
       d="m 773.698,567.384 c 0,-1.24 0,-2.47 0,-3.7 -1.721,-1.77 -4.62,-1.77 -6.34,0 0,1.23 0,2.46 0,3.7 1.909,0.9 4.649,1.65 6.34,0" /><path
       inkscape:connector-curvature="0"
       id="path26"
       style="fill:#231f20;fill-opacity:1;fill-rule:nonzero;stroke:none"
       d="m 771.587,584.294 c 1.08,-1.24 -3.969,-1.08 -7.4,-1.06 -29.109,0.22 -67.619,-1.31 -102.52,-2.11 28.831,2.25 63.621,3.87 93.01,4.23 2.431,0.03 7.45,-0.55 11.62,-0.53 1.861,0.01 5.12,1.02 5.29,-0.53" /><path
       inkscape:connector-curvature="0"
       id="path28"
       style="fill:#231f20;fill-opacity:1;fill-rule:nonzero;stroke:none"
       d="m 730.898,558.924 c 17.319,-0.54 35.35,1.45 51.26,0 -11.38,-1.18 -15.88,-1.04 -30.651,-1.05 0.731,-1.21 3.67,-0.2 5.281,-0.53 4.509,-0.76 -4.361,-0.54 -5.281,-0.53 -8.16,0.04 -14.41,0.64 -24.84,0.53 0.14,-0.19 0.331,-0.33 0.571,-0.42 -24.42,0.34 -55.981,-1.67 -84.071,2 1.531,0.55 5.571,0.07 9.51,0.53 -0.01,-0.07 -0.029,-0.14 -0.069,-0.19 -0.46,-0.11 -0.941,-0.23 -1.511,-0.34 0.551,0.07 1.29,-0.05 1.511,0.34 1.769,0.42 3.22,0.78 8,0.72 3.29,-0.04 9.579,-0.41 3.699,-0.53 -2.97,-0.06 -6.439,0.04 -10.04,0 22.37,-2.39 53.42,-0.28 78.74,-1.58 -0.08,0.97 -1.79,0.32 -2.109,1.05" /><path
       inkscape:connector-curvature="0"
       id="path30"
       style="fill:#231f20;fill-opacity:1;fill-rule:nonzero;stroke:none"
       d="m 759.958,573.724 c 0.879,0 1.759,0 2.639,0 -0.34,-3.88 0.7,-9.15 -0.519,-12.16 -4.401,0.22 0.469,10.25 -2.12,12.16" /><path
       inkscape:connector-curvature="0"
       id="path32"
       style="fill:#231f20;fill-opacity:1;fill-rule:nonzero;stroke:none"
       d="m 757.318,575.304 c 0.18,-1.94 -3.03,-0.48 -2.11,-3.17 -2.3,0.17 -2.321,2.63 -2.121,5.29 0.71,0 1.411,0 2.121,0 -0.25,-1.66 0.45,-2.36 2.11,-2.12" /><path
       inkscape:connector-curvature="0"
       id="path34"
       style="fill:#231f20;fill-opacity:1;fill-rule:nonzero;stroke:none"
       d="m 754.148,571.614 c 2.029,-1.16 1.109,-8.03 0.529,-10.05 -3.8,0.83 -2.33,8.76 -0.529,10.05" /><path
       inkscape:connector-curvature="0"
       id="path36"
       style="fill:#231f20;fill-opacity:1;fill-rule:nonzero;stroke:none"
       d="m 747.278,573.194 c 2.01,-1.79 3.939,-9.46 1.059,-11.63 -2.389,1.84 -0.41,8.05 -1.059,11.63" /><path
       inkscape:connector-curvature="0"
       id="path38"
       style="fill:#231f20;fill-opacity:1;fill-rule:nonzero;stroke:none"
       d="m 742.517,580.064 c 1.681,-3.85 0.891,-14.23 -0.529,-18.5 -2.431,4.09 -0.37,12.66 -1.051,18.5 0.521,0 1.051,0 1.58,0" /><path
       inkscape:connector-curvature="0"
       id="path40"
       style="fill:#231f20;fill-opacity:1;fill-rule:nonzero;stroke:none"
       d="m 735.118,573.194 c 0.71,0 1.41,0 2.12,0 -0.351,-3.7 0.689,-8.8 -0.53,-11.63 -3.691,-0.02 -0.68,9.43 -1.59,11.63" /><path
       inkscape:connector-curvature="0"
       id="path42"
       style="fill:#231f20;fill-opacity:1;fill-rule:nonzero;stroke:none"
       d="m 732.477,556.814 c -0.569,0.02 -1.149,0.03 -1.729,0.04 0.629,0.04 1.229,0.05 1.729,-0.04" /><path
       inkscape:connector-curvature="0"
       id="path44"
       style="fill:#231f20;fill-opacity:1;fill-rule:nonzero;stroke:none"
       d="m 731.948,561.564 c -0.88,0 -1.761,0 -2.641,0 -0.769,5.27 -0.37,10.6 -1.59,14.27 -1.259,-0.32 -0.859,-2.3 -3.17,-1.58 1.161,2.54 1.14,6.26 5.29,5.81 1.04,-5.83 1.611,-12.12 2.111,-18.5" /><path
       inkscape:connector-curvature="0"
       id="path46"
       style="fill:#231f20;fill-opacity:1;fill-rule:nonzero;stroke:none"
       d="m 727.238,556.924 c 1.189,-0.01 2.359,-0.04 3.51,-0.07 -1.271,-0.08 -2.661,-0.27 -3.51,0.07" /><path
       inkscape:connector-curvature="0"
       id="path48"
       style="fill:#231f20;fill-opacity:1;fill-rule:nonzero;stroke:none"
       d="m 722.437,558.924 c 1.25,1.22 4.74,0.19 6.87,0.53 -1.25,-1.21 -4.739,-0.19 -6.87,-0.53" /><path
       inkscape:connector-curvature="0"
       id="path50"
       style="fill:#231f20;fill-opacity:1;fill-rule:nonzero;stroke:none"
       d="m 724.547,573.724 c 0.021,-0.51 0.651,-0.41 1.061,-0.53 -1.561,-2.14 -1.33,-6.06 -5.28,-5.81 -0.271,2.23 -3.93,4.8 -1.59,6.34 -0.771,0.99 -2.901,0.62 -2.641,2.64 -0.97,-0.79 -1.319,-2.2 -2.639,-2.64 -0.21,-1.27 2.4,0.29 1.58,-1.59 -3.731,-0.08 -1.021,5.45 -1.061,7.93 0.881,0 1.771,0 2.65,0 1.941,-2.99 2.85,-7.01 5.281,-9.51 1.42,0.52 0.66,3.22 2.639,3.17" /><path
       inkscape:connector-curvature="0"
       id="path52"
       style="fill:#231f20;fill-opacity:1;fill-rule:nonzero;stroke:none"
       d="m 711.337,569.494 c 1.13,-2.38 -0.07,-6.97 -2.639,-7.4 -2.181,1.15 0.609,1.23 0.529,3.17 -4.84,9.52 -11.229,-5.89 -0.529,-3.17 -1.25,-1.21 -4.74,-0.19 -6.87,-0.53 -6.04,6.4 5.519,9.85 9.509,7.93" /><path
       inkscape:connector-curvature="0"
       id="path54"
       style="fill:#231f20;fill-opacity:1;fill-rule:nonzero;stroke:none"
       d="m 711.337,571.614 c -3.719,-0.21 -2.24,4.8 -6.87,3.69 1.401,1.5 5.91,0.28 6.34,-1.58 0.181,-0.74 -1.21,-0.74 0.53,-2.11" /><path
       inkscape:connector-curvature="0"
       id="path56"
       style="fill:#ffffff;fill-opacity:1;fill-rule:nonzero;stroke:none"
       d="m 709.227,565.264 c 0.08,-1.94 -2.71,-2.02 -0.529,-3.17 -10.7,-2.72 -4.311,12.69 0.529,3.17" /><path
       inkscape:connector-curvature="0"
       id="path58"
       style="fill:#231f20;fill-opacity:1;fill-rule:nonzero;stroke:none"
       d="m 698.127,574.254 c 0.031,-1.8 -0.62,-2.91 -1.589,-3.7 1.95,-1.4 0.66,-6.04 1.589,-8.46 -1.269,-0.21 -1.15,0.97 -2.639,0.53 0,3.88 0,7.75 0,11.63 0.88,0 1.76,0 2.639,0" /><path
       inkscape:connector-curvature="0"
       id="path60"
       style="fill:#231f20;fill-opacity:1;fill-rule:nonzero;stroke:none"
       d="m 676.458,570.554 c 0,1.23 0,2.46 0,3.7 -2.831,2.27 -8.401,1.05 -6.871,-4.23 1.781,-1.72 5.411,-0.98 6.871,0.53 z m 14.799,9.51 c 1.901,-0.86 1.51,-8.05 0,-8.98 -2.979,1.13 -1.92,3.82 -4.759,4.22 -6.831,0.98 -7.521,-12.18 -1.581,-13.21 3.991,-0.68 5.201,2.04 5.81,7.93 3.9,-1.12 0.2,-6.84 -1.06,-7.93 -6.639,-1.96 -11.61,0.67 -11.089,8.46 -0.891,-3.34 -6.351,-2.11 -9.521,-3.17 0.261,-3.62 2.58,-5.18 6.351,-5.29 -16.05,-5.73 -7.521,25.25 3.17,10.57 1.639,3.47 6.2,4.39 11.089,3.17 1.68,0.26 -0.879,4.77 1.59,4.23" /><path
       inkscape:connector-curvature="0"
       id="path62"
       style="fill:#ffffff;fill-opacity:1;fill-rule:nonzero;stroke:none"
       d="m 676.458,574.254 c 0,-1.24 0,-2.47 0,-3.7 -1.46,-1.51 -5.09,-2.25 -6.871,-0.53 -1.53,5.28 4.04,6.5 6.871,4.23" /><path
       inkscape:connector-curvature="0"
       id="path64"
       style="fill:#231f20;fill-opacity:1;fill-rule:nonzero;stroke:none"
       d="m 665.358,561.564 c -0.881,0 -1.761,0 -2.641,0 0.391,3.34 -1.979,8 0,10.57 -1.16,0.6 -1.189,2.33 -1.58,3.7 -1.67,-0.09 -0.679,-2.84 -2.649,-2.64 -0.231,0.79 -0.67,-0.21 -1.58,0 1.95,2.19 2.319,8.49 6.87,6.34 -0.021,-6.53 1.43,-11.61 1.58,-17.97" /><path
       inkscape:connector-curvature="0"
       id="path66"
       style="fill:#231f20;fill-opacity:1;fill-rule:nonzero;stroke:none"
       d="m 654.788,570.554 c 1.719,0.22 1.53,2.35 3.7,2.11 -0.261,-2.2 -1.84,-3.08 -2.111,-5.28 -3.74,-0.98 -5.5,4.06 -3.7,5.28 -1.359,0.76 -2.8,1.42 -3.17,3.17 -1.769,-0.16 -0.53,-3.34 -2.109,-3.7 -2.141,0.8 0.01,5.81 0,7.93 1.05,0 2.109,0 3.17,0 0.739,-3.84 3,-6.15 4.22,-9.51" /><path
       inkscape:connector-curvature="0"
       id="path68"
       style="fill:#ffffff;fill-opacity:1;fill-rule:nonzero;stroke:none"
       d="m 651.097,558.924 c 0.57,0.11 1.051,0.23 1.511,0.34 -0.221,-0.39 -0.96,-0.27 -1.511,-0.34" /><path
       inkscape:connector-curvature="0"
       id="path70"
       style="fill:#231f20;fill-opacity:1;fill-rule:nonzero;stroke:none"
       d="m 485.034,575.293 13.955,-135.501 0,85.56 17.443,-17.442 -31.398,67.383" /><path
       inkscape:connector-curvature="0"
       id="path72"
       style="fill:#231f20;fill-opacity:1;fill-rule:nonzero;stroke:none"
       d="m 485.042,575.395 -31.398,-67.384 17.443,17.443 0,-85.561 13.955,135.502" /><path
       inkscape:connector-curvature="0"
       id="path74"
       style="fill:#100f0d;fill-opacity:1;fill-rule:evenodd;stroke:none"
       d="m 337.261,463.045 19.512,3.78 1.515,-19.817 53.989,70.789 10.515,-8.018 14.964,63.23 -57.018,-31.156 10.512,-8.019 -53.989,-70.789" /><path
       inkscape:connector-curvature="0"
       id="path76"
       style="fill:#100f0d;fill-opacity:1;fill-rule:evenodd;stroke:none"
       d="m 679.727,386.222 -11.023,-11.023 11.023,-5.512 19.291,12.4 -23.424,13.78 c 0,0 -17.913,-13.78 -17.913,-15.157 0,-1.378 16.534,-37.202 16.534,-37.202 l 39.959,16.534 -22.047,48.226 -35.824,4.133 -28.935,-49.603 41.336,-37.204 67.516,13.779 -4.132,-12.4 41.336,33.069 -52.359,-1.378 12.399,-5.511 -64.76,-24.802 -37.203,37.202 33.07,38.581 24.803,-4.133 22.044,-38.581 -35.824,-13.78 -12.402,33.07 12.402,11.022 15.157,-9.645 -12.401,-9.645 -6.89,2.757 8.267,11.023" /><path
       inkscape:connector-curvature="0"
       id="path78"
       style="fill:#100f0d;fill-opacity:1;fill-rule:evenodd;stroke:none"
       d="m 551.323,450.774 33.196,0 0,75.877 16.599,0 -33.196,37.938 -33.198,-37.938 16.599,0 0,-75.877" /><path
       inkscape:connector-curvature="0"
       id="path80"
       style="fill:#100f0d;fill-opacity:1;fill-rule:evenodd;stroke:none"
       d="m 583.221,432.436 -34.089,-34.09 13.636,0 13.635,13.635 0,-40.908 13.637,0 -13.637,-13.635 0,-27.272 13.637,0 0,27.272 22.158,20.454 -22.158,0 0,34.089 13.635,-13.635 14.489,0 -34.943,34.09" /><path
       inkscape:connector-curvature="0"
       id="path82"
       style="fill:#100f0d;fill-opacity:1;fill-rule:evenodd;stroke:none"
       d="m 224.988,564.849 7.284,-55.154 9.574,9.574 -2.914,22.061 58.691,-58.691 9.574,9.574 -27.472,27.473 -31.219,31.218 22.061,-2.914 10.172,10.172 -55.751,6.687" /><path
       inkscape:connector-curvature="0"
       id="path84"
       style="fill:#100f0d;fill-opacity:1;fill-rule:evenodd;stroke:none"
       d="m 714.67,202.166 49.43,69.884 -13.635,28.976 0,-27.271 -30.681,0 3.409,13.635 -25.567,-20.453 25.567,-20.455 -3.409,13.637 32.385,0 0,32.385 8.523,-20.454 -46.022,-69.884" /><path
       inkscape:connector-curvature="0"
       id="path86"
       style="fill:#100f0d;fill-opacity:1;fill-rule:evenodd;stroke:none"
       d="m 324.685,289.365 c -2.307,0 -2.786,-1.256 -1.063,-2.791 l 8.837,-7.873 c 1.721,-1.535 1.721,-4.046 0,-5.58 l -8.837,-7.875 c -1.723,-1.534 -1.244,-2.789 1.063,-2.789 l 79.494,0 c 2.306,0 -5.57,-1.889 -5.57,-4.195 l 0,-5.066 c 0,-2.306 1.724,-3.425 3.83,-2.487 l 52.733,23.494 c 2.108,0.939 2.108,2.476 0,3.414 l -52.733,23.495 c -2.106,0.939 -3.83,-0.18 -3.83,-2.488 l 0,-5.065 c 0,-2.306 7.876,-4.194 5.57,-4.194 l -79.494,0" /><path
       inkscape:connector-curvature="0"
       id="path88"
       style="fill:#100f0d;fill-opacity:1;fill-rule:evenodd;stroke:none"
       d="m 535.553,368.918 -48.578,-48.577 0,-7.671 43.89,-43.89 43.891,0 -57.954,-14.061 40.908,-15.341 -25.567,-10.227 0,-20.454 -23.01,23.863 37.498,-68.179 30.681,68.179 -18.749,-23.863 0,23.863 6.818,6.818 -40.908,15.341 64.771,15.34 0,5.113 -6.819,3.409 -49.429,1.704 -30.681,37.499 33.238,51.134" /><path
       inkscape:connector-curvature="0"
       id="path90"
       style="fill:#100f0d;fill-opacity:1;fill-rule:evenodd;stroke:none"
       d="m 531.292,254.719 37.498,8.522 -34.089,-8.522 28.975,-11.932 -32.384,11.932" /><path
       inkscape:connector-curvature="0"
       id="path92"
       style="fill:#100f0d;fill-opacity:1;fill-rule:evenodd;stroke:none"
       d="m 534.701,246.195 18.749,-6.817 -18.749,-8.523 15.341,8.523 -15.341,6.817" /><path
       inkscape:connector-curvature="0"
       id="path94"
       style="fill:#100f0d;fill-opacity:1;fill-rule:evenodd;stroke:none"
       d="m 512.542,328.011 -8.523,-10.227 6.819,-5.114 -5.114,5.114 6.818,10.227" /><path
       inkscape:connector-curvature="0"
       id="path96"
       style="fill:#100f0d;fill-opacity:1;fill-rule:evenodd;stroke:none"
       d="m 488.679,309.262 39.203,-39.203 -1.704,0 -37.499,39.203" /><path
       inkscape:connector-curvature="0"
       id="path98"
       style="fill:#100f0d;fill-opacity:1;fill-rule:evenodd;stroke:none"
       d="m 536.404,281.99 40.908,-1.705 0,1.705 -40.908,0" /><path
       inkscape:connector-curvature="0"
       id="path100"
       style="fill:#100f0d;fill-opacity:1;fill-rule:evenodd;stroke:none"
       d="m 618.467,513.105 107.622,23.915 11.958,0 0,-89.684 23.916,5.978 -35.874,-35.873 -35.874,35.873 23.917,-5.978 0,77.726 -95.665,-11.957" /><path
       inkscape:connector-curvature="0"
       id="path102"
       style="fill:#100f0d;fill-opacity:1;fill-rule:evenodd;stroke:none"
       d="m 155.653,313.205 1.705,39.203 0,86.195 18.749,-11.932 -42.613,51.514 -39.2026,-51.514 17.0446,11.932 0,-125.398 22.158,164.98 22.159,-164.98" /><path
       inkscape:connector-curvature="0"
       id="path104"
       style="fill:#100f0d;fill-opacity:1;fill-rule:evenodd;stroke:none"
       d="m 133.803,452.262 13.951,-164.979 1.08,39.558 0,86.195 -2.146,-43.204 -12.879,82.785 -12.877,-81.081 -1.074,41.5 0,-125.398" /><path
       inkscape:connector-curvature="0"
       id="path106"
       style="fill:#100f0d;fill-opacity:1;fill-rule:evenodd;stroke:none"
       d="m 204.887,258.101 c 0,0 -28.627,-13.821 -12.832,-29.615 15.794,-15.795 25.665,-25.666 25.665,-25.666 l -11.845,-11.845 0,-37.512 14.807,-1.974 65.151,10.859 0.988,-12.833 36.523,35.537 -60.215,-4.936 13.821,-5.923 -56.268,-20.73 -7.897,0.987 -0.988,31.589 30.602,15.794 0,3.948 -41.46,22.705 c 0,0 -21.717,12.833 3.948,29.615" /><path
       inkscape:connector-curvature="0"
       id="path108"
       style="fill:#100f0d;fill-opacity:1;fill-rule:evenodd;stroke:none"
       d="m 212.785,186.039 6.909,2.961 -0.767,-34.55 -4.607,0.988 -1.535,30.601" /><path
       inkscape:connector-curvature="0"
       id="path110"
       style="fill:#100f0d;fill-opacity:1;fill-rule:evenodd;stroke:none"
       d="m 220.879,189 -1.185,-34.55 0.593,0 2.37,35.537 -1.778,-0.987" /><path
       inkscape:connector-curvature="0"
       id="path112"
       style="fill:#100f0d;fill-opacity:1;fill-rule:nonzero;stroke:none"
       d="m 445.598,221.049 6.32305,0 0,6.32305 -6.32305,0 0,-6.32305 z" /><path
       inkscape:connector-curvature="0"
       id="path114"
       style="fill:#100f0d;fill-opacity:1;fill-rule:nonzero;stroke:none"
       d="m 439.275,214.727 6.32305,0 0,6.32188 -6.32305,0 0,-6.32188 z" /><path
       inkscape:connector-curvature="0"
       id="path116"
       style="fill:#100f0d;fill-opacity:1;fill-rule:nonzero;stroke:none"
       d="m 445.598,214.727 6.32305,0 0,6.32188 -6.32305,0 0,-6.32188 z" /><path
       inkscape:connector-curvature="0"
       id="path118"
       style="fill:#100f0d;fill-opacity:1;fill-rule:nonzero;stroke:none"
       d="m 445.598,208.403 6.32305,0 0,6.32383 -6.32305,0 0,-6.32383 z" /><path
       inkscape:connector-curvature="0"
       id="path120"
       style="fill:#100f0d;fill-opacity:1;fill-rule:nonzero;stroke:none"
       d="m 445.598,202.08 6.32305,0 0,6.32305 -6.32305,0 0,-6.32305 z" /><path
       inkscape:connector-curvature="0"
       id="path122"
       style="fill:#100f0d;fill-opacity:1;fill-rule:nonzero;stroke:none"
       d="m 445.598,195.757 6.32305,0 0,6.32305 -6.32305,0 0,-6.32305 z" /><path
       inkscape:connector-curvature="0"
       id="path124"
       style="fill:#100f0d;fill-opacity:1;fill-rule:nonzero;stroke:none"
       d="m 445.598,189.435 6.32305,0 0,6.32188 -6.32305,0 0,-6.32188 z" /><path
       inkscape:connector-curvature="0"
       id="path126"
       style="fill:#100f0d;fill-opacity:1;fill-rule:nonzero;stroke:none"
       d="m 445.598,183.111 6.32305,0 0,6.32422 -6.32305,0 0,-6.32422 z" /><path
       inkscape:connector-curvature="0"
       id="path128"
       style="fill:#100f0d;fill-opacity:1;fill-rule:nonzero;stroke:none"
       d="m 445.598,176.788 6.32305,0 0,6.32305 -6.32305,0 0,-6.32305 z" /><path
       inkscape:connector-curvature="0"
       id="path130"
       style="fill:#100f0d;fill-opacity:1;fill-rule:nonzero;stroke:none"
       d="m 445.598,170.465 6.32305,0 0,6.32305 -6.32305,0 0,-6.32305 z" /><path
       inkscape:connector-curvature="0"
       id="path132"
       style="fill:#100f0d;fill-opacity:1;fill-rule:nonzero;stroke:none"
       d="m 445.598,164.142 6.32305,0 0,6.32266 -6.32305,0 0,-6.32266 z" /><path
       inkscape:connector-curvature="0"
       id="path134"
       style="fill:#100f0d;fill-opacity:1;fill-rule:nonzero;stroke:none"
       d="m 445.598,157.818 6.32305,0 0,6.32422 -6.32305,0 0,-6.32422 z" /><path
       inkscape:connector-curvature="0"
       id="path136"
       style="fill:#100f0d;fill-opacity:1;fill-rule:nonzero;stroke:none"
       d="m 445.598,151.496 6.32305,0 0,6.32188 -6.32305,0 0,-6.32188 z" /><path
       inkscape:connector-curvature="0"
       id="path138"
       style="fill:#100f0d;fill-opacity:1;fill-rule:nonzero;stroke:none"
       d="m 432.953,208.403 6.32188,0 0,6.32383 -6.32188,0 0,-6.32383 z" /><path
       inkscape:connector-curvature="0"
       id="path140"
       style="fill:#100f0d;fill-opacity:1;fill-rule:nonzero;stroke:none"
       d="m 426.629,202.08 6.32422,0 0,6.32305 -6.32422,0 0,-6.32305 z" /><path
       inkscape:connector-curvature="0"
       id="path142"
       style="fill:#100f0d;fill-opacity:1;fill-rule:nonzero;stroke:none"
       d="m 420.306,195.757 6.32305,0 0,6.32305 -6.32305,0 0,-6.32305 z" /><path
       inkscape:connector-curvature="0"
       id="path144"
       style="fill:#100f0d;fill-opacity:1;fill-rule:nonzero;stroke:none"
       d="m 451.921,214.727 6.32305,0 0,6.32188 -6.32305,0 0,-6.32188 z" /><path
       inkscape:connector-curvature="0"
       id="path146"
       style="fill:#100f0d;fill-opacity:1;fill-rule:nonzero;stroke:none"
       d="m 458.244,208.403 6.32188,0 0,6.32383 -6.32188,0 0,-6.32383 z" /><path
       inkscape:connector-curvature="0"
       id="path148"
       style="fill:#100f0d;fill-opacity:1;fill-rule:nonzero;stroke:none"
       d="m 464.566,202.08 6.32422,0 0,6.32305 -6.32422,0 0,-6.32305 z" /><path
       inkscape:connector-curvature="0"
       id="path150"
       style="fill:#100f0d;fill-opacity:1;fill-rule:nonzero;stroke:none"
       d="m 470.89,195.757 6.32188,0 0,6.32305 -6.32188,0 0,-6.32305 z" /><path
       inkscape:connector-curvature="0"
       id="path152"
       style="fill:#100f0d;fill-opacity:1;fill-rule:nonzero;stroke:none"
       d="M 21.6059,373.234 0.297266,351.926 44.332,441.418 89.7875,353.347 67.0602,373.234" /><path
       inkscape:connector-curvature="0"
       id="path154"
       style="fill:#100f0d;fill-opacity:1;fill-rule:nonzero;stroke:none"
       d="m 22.3141,362.581 7.8375,14.203 28.2144,0 9.4035,-14.203 0,-113.642 -45.4554,0" /><path
       inkscape:connector-curvature="0"
       id="path156"
       style="fill:#100f0d;fill-opacity:1;fill-rule:nonzero;stroke:none"
       d="m 488.992,417.072 c -40.555,0 -107.08,-30.833 -107.08,-71.386 l 25.777,-23.796 c 0,40.554 40.748,67.422 81.303,67.422 l -7.933,-15.864 57.506,27.762 -57.506,31.726 7.933,-15.864" /><path
       inkscape:connector-curvature="0"
       id="path158"
       style="fill:#100f0d;fill-opacity:1;fill-rule:evenodd;stroke:none"
       d="m 375.841,415.3 c 0.489,-3.171 -0.163,-6.191 -1.147,-8.635 -1.024,-2.446 -2.542,-4.362 -4.93,-5.473 -0.597,-0.289 -3.746,-1.613 -9.09,-4.757 -5.366,-3.092 -12.743,-8.134 -22.209,-14.168 -4.761,-2.986 -10.059,-6.215 -16.307,-9.154 -6.231,-2.853 -13.581,-5.716 -22.595,-5.869 -4.465,-0.044 -9.271,0.814 -13.629,2.687 -4.374,1.809 -8.235,4.825 -10.981,7.328 -5.96,5.31 -10.839,11.609 -14.841,18.01 -7.971,12.888 -13.015,25.97 -19.154,36.912 -2.902,5.481 -6.083,9.803 -9.799,12.079 -3.575,2.286 -7.782,2.324 -12.112,0.923 -4.283,-1.37 -8.254,-3.734 -11.683,-5.937 -3.442,-2.233 -6.41,-4.389 -8.9,-6.126 -4.969,-3.512 -8.052,-5.33 -8.593,-4.727 -0.527,0.587 1.45,3.507 5.462,8.186 2.023,2.33 4.562,5.103 7.795,8.095 3.262,2.958 7.146,6.261 12.553,8.868 2.704,1.274 5.867,2.342 9.476,2.6 3.588,0.284 7.571,-0.42 11.059,-2.074 7.059,-3.293 11.96,-9.399 15.746,-15.069 7.753,-11.309 13.999,-24.062 21.718,-34.569 3.854,-5.245 8.082,-9.874 12.784,-13.511 2.538,-1.982 4.339,-3.085 6.358,-3.762 1.989,-0.662 3.988,-0.886 6.172,-0.724 4.368,0.334 9.348,2.322 14.069,4.892 4.743,2.574 9.295,5.668 13.56,8.685 8.521,6.093 16.051,11.816 22.087,15.694 5.993,3.929 10.442,6.086 11.285,6.477 3.405,1.598 7.354,1.637 10.378,0.273 3.061,-1.343 4.985,-4.013 5.468,-7.154" /><path
       inkscape:connector-curvature="0"
       id="path160"
       style="fill:#100f0d;fill-opacity:1;fill-rule:nonzero;stroke:none"
       d="m 329.745,412.346 c 8.964,0.935 17.929,1.869 26.894,2.803 9.424,0.983 18.847,1.965 28.271,2.947 0.015,0.002 0.032,0.003 0.048,0.006 -2.7,3.877 -5.399,7.754 -8.097,11.632 -3.787,-7.987 -7.574,-15.973 -11.36,-23.959 -4.411,-9.304 -8.823,-18.609 -13.234,-27.915 -0.077,-0.161 -0.154,-0.322 -0.23,-0.483 -0.9,-1.899 -1.479,-3.567 -1.023,-5.707 0.429,-2.013 1.674,-3.805 3.415,-4.903 1.684,-1.062 3.756,-1.438 5.706,-1.023 1.813,0.386 4.07,1.657 4.903,3.415 3.787,7.987 7.573,15.972 11.359,23.958 4.412,9.305 8.823,18.61 13.235,27.915 0.077,0.161 0.153,0.323 0.23,0.485 0.71,1.137 1.103,2.377 1.179,3.717 0.065,1.385 -0.219,2.694 -0.854,3.928 -0.643,1.231 -1.548,2.218 -2.718,2.963 -1.83,1.155 -3.627,1.239 -5.706,1.022 -8.964,-0.934 -17.93,-1.868 -26.894,-2.803 -9.423,-0.981 -18.848,-1.964 -28.27,-2.947 -0.016,-10e-4 -0.034,-0.003 -0.048,-0.004 -1.949,-0.204 -3.901,-1.825 -4.904,-3.415 -1.063,-1.685 -1.438,-3.756 -1.022,-5.706 0.427,-2.013 1.673,-3.805 3.414,-4.903 1.83,-1.155 3.627,-1.24 5.706,-1.023 l 0,0" /><path
       inkscape:connector-curvature="0"
       id="path162"
       style="fill:#100f0d;fill-opacity:1;fill-rule:evenodd;stroke:none"
       d="m 51.7859,564.066 c 0,-3.378 -2.7398,-6.119 -6.1183,-6.119 -3.3793,0 -6.1188,2.741 -6.1188,6.119 0,3.38 2.7395,6.12 6.1188,6.12 3.3785,0 6.1183,-2.74 6.1183,-6.12" /><path
       inkscape:connector-curvature="0"
       id="path164"
       style="fill:#100f0d;fill-opacity:1;fill-rule:evenodd;stroke:none"
       d="m 39.5488,551.829 c 0,-3.378 -2.7398,-6.118 -6.1195,-6.118 -3.3781,0 -6.1184,2.74 -6.1184,6.118 0,3.38 2.7403,6.118 6.1184,6.118 3.3797,0 6.1195,-2.738 6.1195,-6.118" /><path
       inkscape:connector-curvature="0"
       id="path166"
       style="fill:#100f0d;fill-opacity:1;fill-rule:evenodd;stroke:none"
       d="m 64.0238,551.829 c 0,-3.378 -2.7402,-6.118 -6.1195,-6.118 -3.3793,0 -6.1184,2.74 -6.1184,6.118 0,3.38 2.7391,6.118 6.1184,6.118 3.3793,0 6.1195,-2.738 6.1195,-6.118" /><path
       inkscape:connector-curvature="0"
       id="path168"
       style="fill:#100f0d;fill-opacity:1;fill-rule:evenodd;stroke:none"
       d="m 76.2598,539.592 c 0,-3.379 -2.7387,-6.118 -6.118,-6.118 -3.3785,0 -6.118,2.739 -6.118,6.118 0,3.38 2.7395,6.119 6.118,6.119 3.3793,0 6.118,-2.739 6.118,-6.119" /><path
       inkscape:connector-curvature="0"
       id="path170"
       style="fill:#100f0d;fill-opacity:1;fill-rule:evenodd;stroke:none"
       d="m 27.3109,539.592 c 0,-3.379 -2.739,-6.118 -6.1183,-6.118 -3.3797,0 -6.1184,2.739 -6.1184,6.118 0,3.38 2.7387,6.119 6.1184,6.119 3.3793,0 6.1183,-2.739 6.1183,-6.119" /><path
       inkscape:connector-curvature="0"
       id="path172"
       style="fill:#100f0d;fill-opacity:1;fill-rule:evenodd;stroke:none"
       d="m 88.498,527.355 c 0,-3.379 -2.7402,-6.119 -6.1187,-6.119 -3.3793,0 -6.1195,2.74 -6.1195,6.119 0,3.379 2.7402,6.119 6.1195,6.119 3.3785,0 6.1187,-2.74 6.1187,-6.119" /><path
       inkscape:connector-curvature="0"
       id="path174"
       style="fill:#100f0d;fill-opacity:1;fill-rule:evenodd;stroke:none"
       d="m 15.0742,527.355 c 0,-3.379 -2.739,-6.119 -6.11873,-6.119 -3.3793,0 -6.11953,2.74 -6.11953,6.119 0,3.379 2.74023,6.119 6.11953,6.119 3.37973,0 6.11873,-2.74 6.11873,-6.119" /><path
       inkscape:connector-curvature="0"
       id="path176"
       style="fill:#100f0d;fill-opacity:1;fill-rule:evenodd;stroke:none"
       d="m 51.7859,551.829 c 0,-3.378 -2.7398,-6.118 -6.1183,-6.118 -3.3793,0 -6.1188,2.74 -6.1188,6.118 0,3.38 2.7395,6.118 6.1188,6.118 3.3785,0 6.1183,-2.738 6.1183,-6.118" /><path
       inkscape:connector-curvature="0"
       id="path178"
       style="fill:#100f0d;fill-opacity:1;fill-rule:evenodd;stroke:none"
       d="m 51.7859,539.592 c 0,-3.379 -2.7398,-6.118 -6.1183,-6.118 -3.3793,0 -6.1188,2.739 -6.1188,6.118 0,3.38 2.7395,6.119 6.1188,6.119 3.3785,0 6.1183,-2.739 6.1183,-6.119" /><path
       inkscape:connector-curvature="0"
       id="path180"
       style="fill:#100f0d;fill-opacity:1;fill-rule:evenodd;stroke:none"
       d="m 51.7859,527.355 c 0,-3.379 -2.7398,-6.119 -6.1183,-6.119 -3.3793,0 -6.1188,2.74 -6.1188,6.119 0,3.379 2.7395,6.119 6.1188,6.119 3.3785,0 6.1183,-2.74 6.1183,-6.119" /><path
       inkscape:connector-curvature="0"
       id="path182"
       style="fill:#100f0d;fill-opacity:1;fill-rule:evenodd;stroke:none"
       d="m 51.7859,515.117 c 0,-3.378 -2.7398,-6.119 -6.1183,-6.119 -3.3793,0 -6.1188,2.741 -6.1188,6.119 0,3.379 2.7395,6.119 6.1188,6.119 3.3785,0 6.1183,-2.74 6.1183,-6.119" /><path
       inkscape:connector-curvature="0"
       id="path184"
       style="fill:#100f0d;fill-opacity:1;fill-rule:evenodd;stroke:none"
       d="m 51.7859,502.88 c 0,-3.38 -2.7398,-6.118 -6.1183,-6.118 -3.3793,0 -6.1188,2.738 -6.1188,6.118 0,3.378 2.7395,6.118 6.1188,6.118 3.3785,0 6.1183,-2.74 6.1183,-6.118" /><path
       inkscape:connector-curvature="0"
       id="path186"
       style="fill:#100f0d;fill-opacity:1;fill-rule:evenodd;stroke:none"
       d="m 51.7859,490.643 c 0,-3.379 -2.7398,-6.118 -6.1183,-6.118 -3.3793,0 -6.1188,2.739 -6.1188,6.118 0,3.38 2.7395,6.119 6.1188,6.119 3.3785,0 6.1183,-2.739 6.1183,-6.119" /><path
       inkscape:connector-curvature="0"
       id="path188"
       style="fill:#100f0d;fill-opacity:1;fill-rule:evenodd;stroke:none"
       d="m 51.7859,478.405 c 0,-3.379 -2.7398,-6.118 -6.1183,-6.118 -3.3793,0 -6.1188,2.739 -6.1188,6.118 0,3.38 2.7395,6.12 6.1188,6.12 3.3785,0 6.1183,-2.74 6.1183,-6.12" /><path
       inkscape:connector-curvature="0"
       id="path190"
       style="fill:#100f0d;fill-opacity:1;fill-rule:evenodd;stroke:none"
       d="m 51.7859,466.168 c 0,-3.379 -2.7398,-6.118 -6.1183,-6.118 -3.3793,0 -6.1188,2.739 -6.1188,6.118 0,3.379 2.7395,6.119 6.1188,6.119 3.3785,0 6.1183,-2.74 6.1183,-6.119" /><path
       inkscape:connector-curvature="0"
       id="path192"
       style="fill:#100f0d;fill-opacity:1;fill-rule:nonzero;stroke:none"
       d="m 627.435,431.254 c 9.395,0.103 18.789,0.208 28.184,0.311 1.054,0.012 2.109,0.024 3.164,0.036 1.758,0.019 2.494,2.462 0.908,3.348 -8.225,4.586 -16.447,9.172 -24.668,13.759 -1.051,0.586 -2.102,1.172 -3.15,1.758 0.294,-0.518 0.591,-1.034 0.888,-1.552 -0.097,8.793 -0.195,17.586 -0.293,26.379 0,0.069 0,0.139 -0.002,0.209 -0.025,2.315 -3.619,2.318 -3.593,0 0.097,-8.793 0.195,-17.586 0.293,-26.379 0,-0.069 0,-0.14 10e-4,-0.209 0.006,-0.626 0.336,-1.242 0.889,-1.552 8.225,-4.587 16.447,-9.172 24.668,-13.758 1.051,-0.586 2.102,-1.172 3.152,-1.758 0.301,1.116 0.604,2.232 0.907,3.348 -9.395,-0.103 -18.789,-0.208 -28.184,-0.311 -1.055,-0.012 -2.109,-0.025 -3.164,-0.035 -2.316,-0.027 -2.318,-3.619 0,-3.594 l 0,0" /><path
       inkscape:connector-curvature="0"
       id="path194"
       style="fill:#100f0d;fill-opacity:1;fill-rule:nonzero;stroke:none"
       d="m 619.939,463.89 c 4.215,7.803 8.428,15.606 12.643,23.41 0.052,0.096 0.105,0.193 0.158,0.291 -1.36,0 -2.721,0 -4.08,0 4.25,-7.734 8.5,-15.467 12.752,-23.2 0.039,-0.073 0.078,-0.145 0.119,-0.217 1.469,-2.671 5.549,-0.287 4.078,2.385 -4.248,7.733 -8.5,15.466 -12.75,23.2 -0.041,0.072 -0.08,0.144 -0.119,0.217 -0.84,1.527 -3.246,1.545 -4.08,0 -4.215,-7.803 -8.43,-15.607 -12.643,-23.411 -0.053,-0.096 -0.105,-0.194 -0.158,-0.291 -1.447,-2.68 2.631,-5.066 4.08,-2.384 l 0,0" /><path
       inkscape:connector-curvature="0"
       id="path196"
       style="fill:#231f20;fill-opacity:1;fill-rule:evenodd;stroke:none"
       d="m 84.6332,560.517 -0.0234,-9.578 53.4072,-0.125 c 0,0 -0.058,-24.308 -0.06,-25.782 -0.005,-1.472 22.075,-22.905 22.075,-22.905 l -19.824,-6.162 49.536,-11.576 -8.036,49.226 -8.883,-18.761 -17.634,18.824 0.062,26.516 -70.6198,0.323" /><path
       inkscape:connector-curvature="0"
       id="path198"
       style="fill:#100f0d;fill-opacity:1;fill-rule:evenodd;stroke:none"
       d="m 190.192,392.707 c 0,0 2.035,-51.634 24.201,-73.712 22.164,-22.079 70.794,-59.569 70.794,-59.569 l -4.26,18.202 42.713,-43.095 -61.647,2.961 16.383,8.805 c 0,0 -82.579,39.33 -85.731,91.195 -3.151,51.866 -2.453,55.213 -2.453,55.213" /><path
       inkscape:connector-curvature="0"
       id="path200"
       style="fill:#100f0d;fill-opacity:1;fill-rule:nonzero;stroke:none"
       d="m 34.2074,82.8738 c 0,0 -39.37849,-44.0398 -6.9785,-50.8347 32.4012,-6.7969 78.7931,5.4257 78.7931,5.4257 L 95.7348,20.2531 150.028,53.6672 83.4809,68.0871 99.5898,55.4711 c 0,0 -52.3757,-10.5492 -63.7574,-8.2731 -18.2211,3.643 -9.3414,19.384 -1.625,35.6758" /><path
       inkscape:connector-curvature="0"
       id="path202"
       style="fill:none;stroke:#231f20;stroke-width:1;stroke-linecap:butt;stroke-linejoin:miter;stroke-miterlimit:4;stroke-opacity:1;stroke-dasharray:none"
       d="m 34.2074,82.8738 c 0,0 -39.37849,-44.0398 -6.9785,-50.8347 32.4012,-6.7969 78.7931,5.4257 78.7931,5.4257 L 95.7348,20.2531 150.028,53.6672 83.4809,68.0871 99.5898,55.4711 c 0,0 -52.3757,-10.5492 -63.7574,-8.2731 -18.2211,3.643 -9.3414,19.384 -1.625,35.6758 z" /><path
       inkscape:connector-curvature="0"
       id="path204"
       style="fill:#100f0d;fill-opacity:1;fill-rule:nonzero;stroke:none"
       d="m 448.966,124.204 18.829,18.831 37.66,-37.66 47.074,0 43.543,37.66 -24.714,0 72.964,28.241 -24.714,-62.37 -3.531,20.006 -54.134,-32.9511 -56.488,0 -37.66,44.7191 -18.829,-16.476" /><path
       inkscape:connector-curvature="0"
       id="path206"
       style="fill:#100f0d;fill-opacity:1;fill-rule:evenodd;stroke:none"
       d="M 497.07,46.65 423.507,9.86914 393.414,34.9469 l 53.501,0 0,46.8133 18.389,-11.7032 -41.797,50.527 -38.452,-50.527 16.719,11.7032 0,-38.4532 -30.094,0 -6.687,-6.6879 L 423.507,4.85391 497.07,46.65" /><path
       inkscape:connector-curvature="0"
       id="path208"
       style="fill:#100f0d;fill-opacity:1;fill-rule:evenodd;stroke:none"
       d="m 340.268,168.486 c 0,0 37.706,51.714 37.706,0 0,-51.711 0,-51.711 0,-51.711 l 15.083,0 -30.166,-25.857 -30.166,25.857 15.085,0 0,51.711 c 0,0 0,4.31 -7.542,0" /><path
       inkscape:connector-curvature="0"
       id="path210"
       style="fill:#100f0d;fill-opacity:1;fill-rule:evenodd;stroke:none"
       d="M 14.684,154.943 26.4313,131.822 79.6352,118.383 68.5328,130.51 106.787,107 l -45.4417,-3.884 15.9461,6.501 -53.5379,16.304 -9.0695,29.022" /><path
       inkscape:connector-curvature="0"
       id="path212"
       style="fill:#100f0d;fill-opacity:1;fill-rule:evenodd;stroke:none"
       d="m 689.147,224.094 -81.328,-5.61 42.067,35.056 0,50.481 11.217,-14.023 -16.826,33.653 -16.827,-33.653 11.217,14.023 0,-54.687 -50.479,-36.458 5.608,-4.207 95.351,15.425" /><path
       inkscape:connector-curvature="0"
       id="path214"
       style="fill:#100f0d;fill-opacity:1;fill-rule:evenodd;stroke:none"
       d="m 587.101,211.866 5.406,-4.206 c 0,0 -3.99,-3.197 -8.526,-1.795 -2.718,0.84 0.315,4.6 3.12,6.001" /><path
       inkscape:connector-curvature="0"
       id="path216"
       style="fill:#100f0d;fill-opacity:1;fill-rule:evenodd;stroke:none"
       d="m 619.037,225.496 -7.012,-5.609 14.022,1.402 -9.815,0 2.805,4.207" /><path
       inkscape:connector-curvature="0"
       id="path218"
       style="fill:#100f0d;fill-opacity:1;fill-rule:evenodd;stroke:none"
       d="m 725.978,170.891 c 0,3.088 -2.527,5.616 -5.617,5.616 l -42.266,0 c -3.09,0 -5.617,-2.528 -5.617,-5.616 l 0,-42.267 c 0,-3.089 -2.527,-5.616 -5.617,-5.616 l -15.516,0 c -3.09,0 -3.356,-1.131 -0.593,-2.513 l 43.453,-21.7251 c 2.762,-1.382 7.284,-1.382 10.047,0 l 43.452,21.7251 c 2.763,1.382 2.497,2.513 -0.593,2.513 l -15.517,0 c -3.089,0 -5.616,2.527 -5.616,5.616 l 0,42.267" /><path
       inkscape:connector-curvature="0"
       id="path220"
       style="fill:#100f0d;fill-opacity:1;fill-rule:evenodd;stroke:none"
       d="m 145.527,118.262 c 0,0 76.799,36.628 76.799,0 0,-36.6268 0,-36.6268 0,-36.6268 l 15.951,15.95 7.68,0 54.055,-54.0563 0.295,16.8383 15.36,-51.98634 -50.806,14.17734 20.086,1.1816 -40.173,69.7102 -7.087,0 -28.357,-37.8078 0,50.8028 c 0,0 4.725,43.718 -46.079,-10.6321" /><path
       inkscape:connector-curvature="0"
       id="path222"
       style="fill:none;stroke:#100f0d;stroke-width:0.61602503;stroke-linecap:butt;stroke-linejoin:miter;stroke-miterlimit:4;stroke-opacity:1;stroke-dasharray:none"
       d="m 145.527,118.262 c 0,0 76.799,36.628 76.799,0 0,-36.6268 0,-36.6268 0,-36.6268 l 15.951,15.95 7.68,0 54.055,-54.0563 0.295,16.8383 15.36,-51.98634 -50.806,14.17734 20.086,1.1816 -40.173,69.7102 -7.087,0 -28.357,-37.8078 0,50.8028 c 0,0 4.725,43.718 -46.079,-10.6321" /><path
       inkscape:connector-curvature="0"
       id="path224"
       style="fill:#100f0d;fill-opacity:1;fill-rule:evenodd;stroke:none"
       d="m 144.347,115.898 14.177,-22.448 -4.726,-4.7262 -11.815,25.9932 2.364,1.181" /><path
       inkscape:connector-curvature="0"
       id="path226"
       style="fill:none;stroke:#100f0d;stroke-width:0.61602503;stroke-linecap:butt;stroke-linejoin:miter;stroke-miterlimit:4;stroke-opacity:1;stroke-dasharray:none"
       d="m 144.347,115.898 14.177,-22.448 -4.726,-4.7262 -11.815,25.9932 2.364,1.181 z" /><path
       inkscape:connector-curvature="0"
       id="path228"
       style="fill:#100f0d;fill-opacity:1;fill-rule:evenodd;stroke:none"
       d="m 139.619,112.355 -1.181,0 4.726,-28.3589 7.089,3.5449 -10.634,24.814" /><path
       inkscape:connector-curvature="0"
       id="path230"
       style="fill:none;stroke:#100f0d;stroke-width:0.61602503;stroke-linecap:butt;stroke-linejoin:miter;stroke-miterlimit:4;stroke-opacity:1;stroke-dasharray:none"
       d="m 139.619,112.355 -1.181,0 4.726,-28.3589 7.089,3.5449 -10.634,24.814 z" /><path
       inkscape:connector-curvature="0"
       id="path232"
       style="fill:#100f0d;fill-opacity:1;fill-rule:evenodd;stroke:none"
       d="m 133.712,109.99 1.181,0 3.545,-27.1752 -1.181,0 -3.545,27.1752" /><path
       inkscape:connector-curvature="0"
       id="path234"
       style="fill:none;stroke:#100f0d;stroke-width:0.61602503;stroke-linecap:butt;stroke-linejoin:miter;stroke-miterlimit:4;stroke-opacity:1;stroke-dasharray:none"
       d="m 133.712,109.99 1.181,0 3.545,-27.1752 -1.181,0 -3.545,27.1752 z" /><path
       inkscape:connector-curvature="0"
       id="path236"
       style="fill:#100f0d;fill-opacity:1;fill-rule:evenodd;stroke:none"
       d="m 182.154,107.628 c 0,0 23.631,24.811 23.631,7.089 0,-17.7229 0,-17.7229 0,-17.7229 0,0 0,35.4449 -23.631,10.6339" /><path
       inkscape:connector-curvature="0"
       id="path238"
       style="fill:none;stroke:#100f0d;stroke-width:0.61602503;stroke-linecap:butt;stroke-linejoin:miter;stroke-miterlimit:4;stroke-opacity:1;stroke-dasharray:none"
       d="m 182.154,107.628 c 0,0 23.631,24.811 23.631,7.089 0,-17.7229 0,-17.7229 0,-17.7229 0,0 0,35.4449 -23.631,10.6339 z" /><path
       inkscape:connector-curvature="0"
       id="path240"
       style="fill:#100f0d;fill-opacity:1;fill-rule:evenodd;stroke:none"
       d="m 238.277,98.1422 7.68,0.034 c 0,0 -0.46,3.4788 -4.004,3.4788 0,0 -3.676,0.032 -3.676,-3.5128" /><path
       inkscape:connector-curvature="0"
       id="path242"
       style="fill:#100f0d;fill-opacity:1;fill-rule:evenodd;stroke:none"
       d="m 59.8648,185.563 c -3.5441,1.626 -2.5683,9.107 2.5086,14.332 0.6516,0.649 3.8098,4.14 9.7227,8.929 3.0168,2.369 6.5879,5.125 11.7676,7.63 1.3293,0.61 2.7636,1.206 4.4707,1.683 0.8742,0.228 1.8117,0.428 2.8547,0.554 0.8476,0.082 1.6289,0.144 2.4511,0.163 3.2539,0.098 6.5238,-0.274 9.7038,-0.955 6.383,-1.356 12.479,-3.857 18.514,-6.446 2.997,-1.285 6.065,-2.635 8.951,-3.742 3.271,-1.22 6.399,-2.445 9.563,-3.481 6.218,-2.056 12.938,-3.509 17.975,-1.986 2.551,0.791 4.332,2.082 5.403,4.137 1.095,2.033 1.417,4.99 1.053,8.088 -0.354,3.105 -1.3,6.345 -2.603,9.375 -1.138,2.783 -3.119,5.469 -5.321,8.049 -4.435,5.097 -9.778,9.55 -15.34,12.398 -5.576,2.88 -11.444,3.618 -15.166,0.51 -1.862,-1.419 -3.589,-3.951 -4.23,-5.894 -0.6,-1.981 -0.154,-3.591 1.35,-5.125 3.138,-2.995 8.302,-4.188 12.157,-4.08 1.949,0.064 3.704,0.639 3.948,1.323 0.468,0.756 0.021,2.527 -0.569,3.834 -1.236,2.756 -2.68,4.897 -3.493,6.416 -0.851,1.52 -1.19,2.419 -0.995,2.55 0.194,0.132 0.897,-0.481 2.11,-1.721 1.188,-1.274 2.975,-3.069 4.808,-5.985 0.754,-1.482 2.118,-3.308 1.292,-6.353 -0.523,-1.494 -1.838,-2.541 -3.031,-3.063 -1.231,-0.564 -2.421,-0.83 -3.703,-1.024 -2.501,-0.322 -5.129,-0.2 -7.853,0.376 -2.708,0.601 -5.586,1.611 -8.239,3.824 -1.295,1.125 -2.531,2.633 -3.207,4.551 -0.71,1.899 -0.714,4.063 -0.278,5.947 1.049,3.768 2.842,6.639 5.761,9.375 2.906,2.679 7.2,4.173 11.223,4.094 4.052,-0.022 7.841,-1.153 11.338,-2.678 6.98,-3.152 13.087,-7.816 18.519,-13.471 2.657,-2.849 5.316,-6.028 7.213,-10.028 1.778,-3.698 3.143,-7.616 3.826,-11.894 0.643,-4.228 0.652,-9.064 -1.52,-13.78 -2.096,-4.77 -6.731,-8.265 -11.165,-9.704 -4.544,-1.553 -9.05,-1.615 -13.121,-1.205 -4.1,0.42 -7.884,1.348 -11.465,2.38 -3.575,1.036 -6.957,2.234 -10.103,3.287 -3.513,1.217 -6.595,2.469 -9.622,3.649 -5.991,2.36 -11.497,4.346 -16.41,5.218 -2.4495,0.45 -4.7202,0.609 -6.7406,0.485 -0.498,-0.024 -1.0156,-0.085 -1.4484,-0.139 -0.2344,-0.042 -0.5398,-0.116 -0.8797,-0.214 -0.707,-0.224 -1.5324,-0.58 -2.3508,-0.986 -3.3554,-1.724 -6.489,-4.155 -8.9531,-6.229 -4.9832,-4.25 -7.7156,-7.393 -8.2539,-7.932 -4.3602,-4.55 -9.0711,-6.581 -12.4227,-5.042" /><path
       inkscape:connector-curvature="0"
       id="path244"
       style="fill:#100f0d;fill-opacity:1;fill-rule:nonzero;stroke:none"
       d="m 108.531,192.937 c -12.3947,1.852 -25.1056,-0.294 -36.8861,-4.222 -9.9519,-3.319 -19.4648,-8.317 -28.1015,-14.249 -0.461,-0.316 -0.9188,-0.638 -1.375,-0.962 5.4328,-0.589 10.8664,-1.178 16.2988,-1.766 0.1074,0.324 0.216,0.647 0.3242,0.971 -0.1043,-0.311 -0.209,-0.621 -0.3125,-0.931 3.3508,9.96 7.3066,19.747 9.7598,29.986 2.466,10.284 4.0058,20.72 6.091,31.08 0.2441,1.211 -1.8117,2.174 -2.5617,2.473 -1.9403,0.777 -4.1121,1.026 -6.1844,1.026 -2.0734,0 -4.2453,-0.249 -6.1848,-1.026 -1.2136,-0.485 -2.291,-1.122 -2.5625,-2.473 -1.4785,-7.347 -2.5652,-14.767 -4.0761,-22.108 -1.4969,-7.274 -3.3289,-14.441 -5.6903,-21.486 0.1035,0.31 0.209,0.62 0.3125,0.93 -2.0773,-6.168 -4.3605,-12.264 -6.4082,-18.442 0.0996,-0.779 0.4981,-1.369 1.1942,-1.766 1.4972,-1.023 3.4648,-1.414 5.2277,-1.609 1.5496,-0.166 3.0996,-0.166 4.6504,0 1.7332,0.192 3.7644,0.571 5.2273,1.609 4.3215,3.068 8.8535,5.827 13.5539,8.276 -0.4562,-0.236 -0.9113,-0.473 -1.3672,-0.709 3.2149,1.664 6.504,3.178 9.8692,4.514 1.7383,0.691 3.5,1.324 5.2762,1.91 0.3937,0.129 0.789,0.254 1.1847,0.379 -2.5129,-0.789 -0.5605,-0.18 0.0125,-0.013 0.8907,0.258 1.7864,0.495 2.6856,0.723 0.8926,0.225 1.791,0.429 2.6926,0.622 0.821,0.176 4.2128,0.769 0.9031,0.213 1.7793,0.299 3.5722,0.513 5.3703,0.655 0.198,0.016 0.3953,0.03 0.5937,0.043 0.8739,0.054 0.3946,0.029 -1.4367,-0.074 0.4914,0.026 0.9844,0.042 1.4766,0.053 0.8801,0.023 1.7597,0.015 2.6397,-0.008 0.195,-0.006 0.39,-0.013 0.584,-0.021 0.873,-0.041 0.389,-0.013 -1.453,0.079 0.482,-0.027 0.964,-0.067 1.445,-0.11 0.863,-0.076 1.721,-0.187 2.576,-0.315 2.177,-0.326 4.603,-0.148 6.74,0.353 1.352,0.317 3.172,0.858 4.019,2.091 0.727,1.056 0.017,2.083 -0.882,2.696 -1.536,1.049 -3.435,1.34 -5.226,1.608 l 0,0" /><path
       inkscape:connector-curvature="0"
       id="path246"
       style="fill:#100f0d;fill-opacity:1;fill-rule:evenodd;stroke:none"
       d="m 532.913,59.1469 27.907,-29.1821 25.593,25.8383 c 0,0 23.244,-24.014 23.68,-24.4699 0.436,-0.4562 21.366,0 21.366,0 l 22.457,23.4809 37.261,-30.7762 29.392,38.4519 -24.751,0 71.156,40.1252 -12.375,-71.89 -7.734,21.734 -48.437,-36.7809 -11.704,0 -33.437,31.7649 -27.933,-28.4211 -17.441,1.8242 -21.5,33.2848 -25.593,-30.55 -27.907,35.566" /></g></svg>